<?xml version="1.0" encoding="utf-8"?>
<!-- Generator: Adobe Illustrator 28.1.0, SVG Export Plug-In . SVG Version: 6.00 Build 0)  -->
<svg version="1.1" id="Layer_1" xmlns="http://www.w3.org/2000/svg" xmlns:xlink="http://www.w3.org/1999/xlink" x="0px" y="0px"
	 viewBox="0 0 532.6 163.4" style="enable-background:new 0 0 532.6 163.4;" xml:space="preserve">
<style type="text/css">
	.st0{fill:#46BABA;}
	.st1{fill:#98C100;}
	.green {fill: #98C100}
</style>
<g>
	<g>
		<g>
			<path class="green" d="M89.4,139.6l-10.8-2.1v-14l2.2,0.4l8.6,1.6l10.8-2.1v14L89.4,139.6z M81.4,135.2l8,1.5l8-1.5V127l-8,1.5
				l-8-1.5V135.2z"/>
		</g>
		<g>
			<path class="st1" d="M89.3,106.1c-17.2,0-31.2-14-31.2-31.2s14-31.2,31.2-31.2s31.2,14,31.2,31.2S106.5,106.1,89.3,106.1z
				 M89.3,46.6C73.7,46.6,61,59.3,61,74.9s12.7,28.4,28.4,28.4s28.4-12.7,28.4-28.4S105,46.6,89.3,46.6z"/>
		</g>
		<g>
			<path class="st1" d="M89.3,106.1c-17.2,0-31.2-14-31.2-31.2s14-31.2,31.2-31.2s31.2,14,31.2,31.2S106.5,106.1,89.3,106.1z
				 M89.3,46.6C73.7,46.6,61,59.3,61,74.9s12.7,28.4,28.4,28.4s28.4-12.7,28.4-28.4S105,46.6,89.3,46.6z"/>
		</g>
		<g>
			<path class="st1" d="M172.4,47.5L89.3,31.3L6.3,47.5L6.1,46C4.6,30.8,5,19.6,5,19.5l0-1.1L89.3,0l84.3,18.4l0,1.1
				c0,0.1,0.4,11.3-1.1,26.5L172.4,47.5z M7.8,20.7c-0.1,3-0.1,12,1,23.5l80.6-15.7l80.6,15.7c1.1-11.5,1-20.5,1-23.5L89.3,2.9
				L7.8,20.7z"/>
		</g>
		<g>
			<g>
				<path class="green" d="M13.3,39.6l-0.1-1.7c-0.1-4.3-0.2-11.8-0.1-14l0-1.1l15.2-3.1v16.6L13.3,39.6z M16,25.1c0,2.5,0,7.3,0.1,11
					l9.5-2.1V23.1L16,25.1z"/>
			</g>
			<g>
				<path class="green" d="M32.2,35.4V18.9L51.6,15v16.2L32.2,35.4z M35,21.2v10.7l13.8-3V18.4L35,21.2z"/>
			</g>
			<g>
				<path class="green" d="M55.4,30.4V14.2l19.4-3.9v15.8L55.4,30.4z M58.2,16.5v10.3l13.8-3V13.7L58.2,16.5z"/>
			</g>
			<g>
				<path class="green" d="M100.2,25.6l-10.8-2.7l-10.8,2.7v-16l10.9-2.2l0.2,0l10.5,2.1L100.2,25.6L100.2,25.6z M89.2,20l0.5,0
					l7.6,1.9V11.8l-8-1.6l-8,1.6V22L89.2,20z"/>
			</g>
		</g>
		<g>
			<g>
				<path class="green" d="M165.4,39.6l-15.1-3.3V19.7l15.2,3.1l0,1.1c0,2.1,0,9.6-0.1,14L165.4,39.6z M153.1,34l9.5,2.1
					c0.1-3.7,0.1-8.5,0.1-11l-9.6-2V34z"/>
			</g>
			<g>
				<path class="green" d="M146.5,35.4l-19.4-4.3V15l19.4,3.9V35.4z M129.9,28.9l13.8,3V21.2l-13.8-2.8V28.9z"/>
			</g>
			<g>
				<path class="green" d="M123.3,30.4l-19.4-4.3V10.3l19.4,3.9L123.3,30.4L123.3,30.4z M106.7,23.8l13.8,3V16.5l-13.8-2.8V23.8z"/>
			</g>
		</g>
		<g>
			<path class="st1" d="M89.3,106.1c-17.2,0-31.2-14-31.2-31.2s14-31.2,31.2-31.2s31.2,14,31.2,31.2S106.5,106.1,89.3,106.1z
				 M89.3,46.6C73.7,46.6,61,59.3,61,74.9s12.7,28.4,28.4,28.4s28.4-12.7,28.4-28.4S105,46.6,89.3,46.6z"/>
		</g>
		<g>
			<path class="green" d="M51.6,132.4l-19.5-3.7v-14l19.5,3.7V132.4z M34.9,126.4l13.8,2.6v-8.2l-13.8-2.6V126.4z"/>
		</g>
		<g>
			<path class="st1" d="M72.4,117.5l-47.7-9.3l-0.3-0.5c-0.8-1.2-1.6-2.6-2.3-3.9C11.8,85.4,7.7,62.2,6.1,46L6,44.7l28.4-5.5
				l0.1,1.6c1.3,14.2,4.5,34.3,12.7,49c4.2,7.6,11.3,15.8,21.1,24.3L72.4,117.5z M26.4,105.6l36.3,7.1c-8.1-7.5-14.1-14.7-17.9-21.6
				c-8.1-14.6-11.5-34.2-12.9-48.6L9.1,47c1.7,15.9,5.7,37.9,15.4,55.4C25.1,103.5,25.8,104.6,26.4,105.6z"/>
		</g>
		<g>
			<path class="green" d="M74.8,136.9l-19.5-3.7v-14l19.5,3.7V136.9z M58.1,130.8l13.8,2.6v-8.2l-13.8-2.6
				C58.1,122.6,58.1,130.8,58.1,130.8z"/>
		</g>
		<g>
			<path class="green" d="M103.9,136.9v-14l19.5-3.7v14L103.9,136.9z M106.8,125.2v8.2l13.8-2.6v-8.2L106.8,125.2z"/>
		</g>
		<g>
			<path class="st1" d="M89.3,163.4l-0.7-0.4c-0.2-0.1-16.6-8.8-33.7-22.7l-4.4-3.6l38.8,7.6l38.8-7.6l-4.4,3.6
				C106.6,154.2,90.2,163,90,163.1L89.3,163.4z M61.4,141.8c13.2,10.1,25.1,16.8,28,18.4c2.9-1.6,14.8-8.3,28-18.4l-28,5.5
				L61.4,141.8z"/>
		</g>
		<g>
			<path class="green" d="M127.2,132.4v-14l19.5-3.7v14L127.2,132.4z M130,120.8v8.2l13.8-2.6v-8.2L130,120.8z"/>
		</g>
		<g>
			<path class="st1" d="M106.3,117.5l4-3.5c9.8-8.5,16.9-16.7,21.2-24.3c8.1-14.6,11.4-34.7,12.7-49l0.1-1.6l28.5,5.6l-0.1,1.3
				c-1.6,16.2-5.7,39.4-15.9,57.8c-0.7,1.3-1.5,2.6-2.3,3.9l-0.3,0.5L106.3,117.5z M146.8,42.5c-1.4,14.5-4.8,34.1-12.9,48.6
				c-3.8,6.8-9.8,14.1-17.9,21.6l36.3-7.1c0.6-1,1.3-2.1,1.9-3.2c9.7-17.5,13.8-39.5,15.4-55.4L146.8,42.5z"/>
		</g>
	</g>
</g>
<g>
	<g>
		<g>
			<path class="st0" d="M233.9,50.5c-0.3-0.4-0.7-0.7-1.4-1.1c-0.6-0.4-1.3-0.8-2.2-1.1c-0.8-0.3-1.7-0.6-2.7-0.9
				c-1-0.2-2-0.4-3-0.4c-2.2,0-3.9,0.4-5,1.2s-1.6,2-1.6,3.4c0,1.1,0.3,1.9,0.9,2.6s1.5,1.1,2.8,1.6c1.3,0.4,2.8,0.8,4.7,1.3
				c2.3,0.5,4.3,1.2,6,2c1.7,0.8,3,1.8,3.9,3c0.9,1.2,1.4,2.9,1.4,5c0,1.7-0.3,3.1-1,4.4c-0.7,1.2-1.6,2.2-2.7,3
				c-1.1,0.8-2.5,1.4-4,1.7s-3.1,0.6-4.8,0.6c-1.7,0-3.4-0.2-5.1-0.6c-1.7-0.4-3.3-0.9-4.8-1.6c-1.5-0.7-2.9-1.5-4.2-2.5l2.5-4.6
				c0.4,0.4,1,0.9,1.8,1.4s1.7,1,2.8,1.4c1,0.4,2.2,0.8,3.4,1.1c1.2,0.3,2.5,0.5,3.8,0.5c2.1,0,3.8-0.4,4.9-1.1
				c1.1-0.7,1.7-1.8,1.7-3.3c0-1.1-0.4-2-1.1-2.7c-0.8-0.7-1.8-1.3-3.2-1.7c-1.4-0.5-3.1-0.9-5-1.4c-2.2-0.6-4.1-1.2-5.6-2
				c-1.5-0.7-2.6-1.6-3.4-2.8c-0.7-1.1-1.1-2.6-1.1-4.4c0-2.2,0.5-4.1,1.6-5.7c1.1-1.5,2.6-2.7,4.4-3.5s4-1.2,6.3-1.2
				c1.5,0,3,0.2,4.4,0.5c1.4,0.3,2.7,0.8,3.9,1.4c1.2,0.6,2.3,1.2,3.2,2L233.9,50.5z"/>
			<path class="st0" d="M277.6,47.2h-11.3v29.3h-5.4V47.2h-11.4v-4.8h28.1L277.6,47.2L277.6,47.2z"/>
			<path class="st0" d="M298.4,42.5h5.1l13.2,34h-5.7l-3.3-9.2h-13.6l-3.3,9.2h-5.7L298.4,42.5z M306.3,63.3L301,48.4l-5.4,14.9
				H306.3z"/>
			<path class="st0" d="M330.5,76.5v-34h5.4v29.3h18.2v4.8L330.5,76.5L330.5,76.5z"/>
			<path class="st0" d="M375.6,42.6h5l4.2,11.6l4.2-11.6h5.1l-5.9,15.1l5.1,12.6L404,42.5h5.9l-13.9,34h-4.7l-6.4-15.2l-6.4,15.2
				h-4.7l-13.9-34h5.9l10.6,27.8l5.1-12.6L375.6,42.6z"/>
			<path class="st0" d="M430.5,42.5h5.1l13.2,34h-5.7l-3.3-9.2h-13.6l-3.3,9.2h-5.7L430.5,42.5z M438.4,63.3L433,48.4l-5.4,14.9
				H438.4z"/>
			<path class="st0" d="M462.6,76.5v-34h14.8c1.5,0,2.9,0.3,4.2,1S484,45,485,46c0.9,1.1,1.7,2.2,2.2,3.6c0.5,1.3,0.8,2.7,0.8,4
				c0,1.5-0.3,3-0.8,4.3c-0.5,1.4-1.3,2.5-2.3,3.5c-1,1-2.2,1.7-3.5,2.2l8,12.9h-6l-7.4-11.8H468v11.8L462.6,76.5L462.6,76.5z
				 M468,60h9.4c1,0,1.9-0.3,2.6-0.9c0.8-0.6,1.4-1.4,1.8-2.3s0.7-2,0.7-3.2c0-1.2-0.3-2.2-0.8-3.2s-1.2-1.7-2-2.3s-1.7-0.8-2.6-0.8
				H468L468,60L468,60z"/>
			<path class="st0" d="M528.5,47.2h-11.3v29.3h-5.4V47.2h-11.4v-4.8h28.1V47.2z"/>
		</g>
		<g>
			<path class="st0" d="M222.3,104.6V88.7h6.7c0.7,0,1.4,0.1,2,0.4s1.1,0.7,1.6,1.2c0.5,0.5,0.8,1.1,1,1.7c0.2,0.6,0.4,1.2,0.4,1.9
				c0,0.9-0.2,1.7-0.6,2.5c-0.4,0.8-0.9,1.4-1.7,1.9s-1.6,0.8-2.5,0.8h-4.3v5.5L222.3,104.6L222.3,104.6z M224.8,96.8h4.1
				c0.5,0,0.9-0.1,1.2-0.4s0.6-0.6,0.8-1.1c0.2-0.5,0.3-1,0.3-1.5c0-0.6-0.1-1.1-0.4-1.5c-0.2-0.4-0.5-0.8-0.9-1s-0.8-0.4-1.2-0.4
				h-4L224.8,96.8L224.8,96.8z"/>
			<path class="st0" d="M240.7,104.6V88.7h6.9c0.7,0,1.4,0.1,2,0.4s1.1,0.7,1.6,1.2c0.4,0.5,0.8,1.1,1,1.7s0.4,1.2,0.4,1.9
				c0,0.7-0.1,1.4-0.4,2c-0.2,0.6-0.6,1.2-1.1,1.6c-0.5,0.5-1,0.8-1.6,1l3.7,6h-2.8l-3.4-5.5h-3.7v5.5L240.7,104.6L240.7,104.6z
				 M243.2,96.8h4.4c0.5,0,0.9-0.1,1.2-0.4c0.4-0.3,0.6-0.6,0.9-1.1c0.2-0.4,0.3-0.9,0.3-1.5c0-0.6-0.1-1.1-0.4-1.5
				s-0.6-0.8-0.9-1.1c-0.4-0.3-0.8-0.4-1.2-0.4h-4.2L243.2,96.8L243.2,96.8z"/>
			<path class="st0" d="M266.5,104.7c-1.1,0-2.1-0.2-3.1-0.7c-0.9-0.4-1.7-1.1-2.4-1.8c-0.7-0.8-1.2-1.6-1.6-2.6
				c-0.4-1-0.6-1.9-0.6-3c0-1.1,0.2-2.1,0.6-3c0.4-1,0.9-1.8,1.6-2.6s1.5-1.4,2.4-1.8c0.9-0.4,1.9-0.7,3-0.7c1.1,0,2.2,0.2,3.1,0.7
				c0.9,0.5,1.7,1.1,2.4,1.9c0.7,0.8,1.2,1.6,1.5,2.6c0.4,1,0.5,1.9,0.5,2.9c0,1-0.2,2.1-0.6,3c-0.4,1-0.9,1.8-1.6,2.6
				s-1.5,1.4-2.4,1.8C268.6,104.5,267.6,104.7,266.5,104.7z M261.5,96.6c0,0.8,0.1,1.5,0.4,2.2c0.2,0.7,0.6,1.3,1,1.9
				c0.4,0.5,1,1,1.6,1.3c0.6,0.3,1.3,0.5,2.1,0.5c0.8,0,1.5-0.2,2.2-0.5s1.2-0.8,1.6-1.3s0.8-1.2,1-1.9s0.3-1.4,0.3-2.1
				c0-0.8-0.1-1.5-0.4-2.2s-0.6-1.3-1-1.9c-0.5-0.5-1-1-1.6-1.3c-0.6-0.3-1.3-0.5-2.1-0.5c-0.8,0-1.5,0.2-2.2,0.5s-1.2,0.8-1.6,1.3
				s-0.8,1.2-1,1.9C261.6,95.2,261.5,95.9,261.5,96.6z"/>
			<path class="st0" d="M281.2,104.6V88.7h5.6c1.7,0,3.1,0.4,4.3,1.1c1.1,0.7,2,1.7,2.6,2.9c0.6,1.2,0.9,2.5,0.9,4
				c0,1.6-0.3,3-1,4.2c-0.6,1.2-1.5,2.1-2.7,2.8c-1.2,0.7-2.5,1-4.1,1L281.2,104.6L281.2,104.6z M292.1,96.6c0-1.1-0.2-2.1-0.6-2.9
				c-0.4-0.9-1-1.5-1.8-2c-0.8-0.5-1.7-0.7-2.8-0.7h-3.1v11.5h3.1c1.1,0,2.1-0.2,2.8-0.8c0.8-0.5,1.4-1.2,1.8-2.1
				C291.9,98.7,292.1,97.7,292.1,96.6z"/>
			<path class="st0" d="M308.3,104.7c-1.3,0-2.3-0.2-3.2-0.6c-0.9-0.4-1.6-1-2.1-1.8s-0.9-1.6-1.2-2.6c-0.2-0.9-0.4-1.9-0.4-3v-8.1
				h2.5v8.1c0,0.7,0.1,1.4,0.2,2.1c0.1,0.7,0.4,1.3,0.7,1.8c0.3,0.5,0.8,1,1.3,1.3c0.6,0.3,1.2,0.5,2.1,0.5c0.9,0,1.6-0.2,2.1-0.5
				s1-0.8,1.3-1.3c0.3-0.6,0.6-1.2,0.7-1.8c0.1-0.7,0.2-1.4,0.2-2.1v-8.1h2.5v8.1c0,1.1-0.1,2.1-0.4,3.1s-0.7,1.8-1.2,2.5
				c-0.6,0.7-1.2,1.3-2.1,1.7C310.6,104.5,309.6,104.7,308.3,104.7z"/>
			<path class="st0" d="M322,96.5c0-1,0.2-1.9,0.5-2.9c0.3-0.9,0.9-1.8,1.5-2.6s1.5-1.4,2.4-1.8c1-0.5,2-0.7,3.2-0.7
				c1.4,0,2.7,0.3,3.7,1c1,0.6,1.8,1.5,2.3,2.5l-2,1.3c-0.3-0.6-0.6-1.1-1.1-1.5c-0.5-0.4-1-0.6-1.5-0.8c-0.5-0.1-1.1-0.2-1.6-0.2
				c-0.8,0-1.5,0.2-2.2,0.5c-0.6,0.3-1.1,0.8-1.6,1.3s-0.7,1.2-1,1.9c-0.2,0.7-0.3,1.4-0.3,2.1c0,0.8,0.1,1.5,0.4,2.2
				c0.2,0.7,0.6,1.3,1,1.9c0.5,0.5,1,1,1.6,1.3c0.6,0.3,1.3,0.5,2,0.5c0.5,0,1.1-0.1,1.6-0.3c0.5-0.2,1.1-0.5,1.5-0.9
				s0.8-0.9,1.1-1.5l2.1,1.2c-0.3,0.8-0.8,1.5-1.5,2c-0.7,0.6-1.5,1-2.3,1.2s-1.7,0.4-2.6,0.4c-1.1,0-2.1-0.2-3-0.7
				c-0.9-0.5-1.7-1.1-2.4-1.9s-1.2-1.7-1.6-2.6C322.2,98.5,322,97.5,322,96.5z"/>
			<path class="st0" d="M354.5,90.9h-5.3v13.7h-2.5V90.9h-5.3v-2.2h13.1V90.9z"/>
			<path class="st0" d="M361.1,104.6V88.7h2.5v15.9H361.1z"/>
			<path class="st0" d="M378.2,104.7c-1.1,0-2.1-0.2-3.1-0.7c-0.9-0.4-1.7-1.1-2.4-1.8c-0.7-0.8-1.2-1.6-1.6-2.6
				c-0.4-1-0.5-1.9-0.5-3c0-1.1,0.2-2.1,0.6-3c0.4-1,0.9-1.8,1.6-2.6s1.5-1.4,2.4-1.8c0.9-0.4,1.9-0.7,3-0.7c1.1,0,2.2,0.2,3.1,0.7
				c0.9,0.5,1.7,1.1,2.4,1.9c0.7,0.8,1.2,1.6,1.5,2.6c0.4,1,0.5,1.9,0.5,2.9c0,1-0.2,2.1-0.6,3c-0.4,1-0.9,1.8-1.6,2.6
				s-1.5,1.4-2.4,1.8C380.4,104.5,379.4,104.7,378.2,104.7z M373.2,96.6c0,0.8,0.1,1.5,0.4,2.2c0.2,0.7,0.6,1.3,1,1.9
				c0.4,0.5,1,1,1.6,1.3c0.6,0.3,1.3,0.5,2.1,0.5c0.8,0,1.5-0.2,2.1-0.5s1.2-0.8,1.6-1.3s0.8-1.2,1-1.9s0.3-1.4,0.3-2.1
				c0-0.8-0.1-1.5-0.4-2.2c-0.2-0.7-0.6-1.3-1-1.9c-0.5-0.5-1-1-1.6-1.3c-0.6-0.3-1.3-0.5-2.1-0.5c-0.8,0-1.5,0.2-2.2,0.5
				s-1.1,0.8-1.6,1.3c-0.4,0.6-0.8,1.2-1,1.9C373.3,95.2,373.2,95.9,373.2,96.6z"/>
			<path class="st0" d="M395.5,93.4v11.2H393V88.7h2.1l9,11.5V88.7h2.5v15.9h-2.2L395.5,93.4z"/>
			<path class="st0" d="M437.7,88.7v15.9h-2.5v-7h-8v7h-2.5V88.7h2.5v6.6h8v-6.6H437.7z"/>
			<path class="st0" d="M452.3,104.7c-1.1,0-2.1-0.2-3.1-0.7c-0.9-0.4-1.7-1.1-2.4-1.8c-0.7-0.8-1.2-1.6-1.6-2.6
				c-0.4-1-0.5-1.9-0.5-3c0-1.1,0.2-2.1,0.6-3c0.4-1,0.9-1.8,1.6-2.6s1.5-1.4,2.4-1.8c0.9-0.4,1.9-0.7,3-0.7c1.1,0,2.2,0.2,3.1,0.7
				c0.9,0.5,1.7,1.1,2.4,1.9c0.7,0.8,1.2,1.6,1.5,2.6c0.4,1,0.5,1.9,0.5,2.9c0,1-0.2,2.1-0.6,3c-0.4,1-0.9,1.8-1.6,2.6
				s-1.5,1.4-2.4,1.8C454.4,104.5,453.4,104.7,452.3,104.7z M447.3,96.6c0,0.8,0.1,1.5,0.4,2.2s0.6,1.3,1,1.9c0.4,0.5,1,1,1.6,1.3
				c0.6,0.3,1.3,0.5,2.1,0.5c0.8,0,1.5-0.2,2.1-0.5c0.6-0.3,1.2-0.8,1.6-1.3s0.8-1.2,1-1.9s0.3-1.4,0.3-2.1c0-0.8-0.1-1.5-0.4-2.2
				c-0.2-0.7-0.6-1.3-1-1.9c-0.4-0.5-1-1-1.6-1.3c-0.6-0.3-1.3-0.5-2.1-0.5c-0.8,0-1.5,0.2-2.2,0.5c-0.6,0.3-1.1,0.8-1.6,1.3
				s-0.8,1.2-1,1.9C447.4,95.2,447.3,95.9,447.3,96.6z"/>
			<path class="st0" d="M473.7,104.7c-1.3,0-2.3-0.2-3.2-0.6s-1.6-1-2.1-1.8c-0.5-0.8-0.9-1.6-1.2-2.6c-0.2-0.9-0.4-1.9-0.4-3v-8.1
				h2.5v8.1c0,0.7,0.1,1.4,0.2,2.1c0.1,0.7,0.4,1.3,0.7,1.8c0.3,0.5,0.8,1,1.3,1.3c0.5,0.3,1.2,0.5,2.1,0.5c0.9,0,1.5-0.2,2.1-0.5
				c0.5-0.3,1-0.8,1.3-1.3c0.3-0.6,0.6-1.2,0.7-1.8c0.1-0.7,0.2-1.4,0.2-2.1v-8.1h2.5v8.1c0,1.1-0.1,2.1-0.4,3.1s-0.7,1.8-1.2,2.5
				c-0.5,0.7-1.2,1.3-2.1,1.7C475.9,104.5,474.9,104.7,473.7,104.7z"/>
			<path class="st0" d="M497.7,92.4c-0.1-0.2-0.4-0.3-0.6-0.5s-0.6-0.4-1-0.5c-0.4-0.2-0.8-0.3-1.2-0.4c-0.5-0.1-0.9-0.2-1.4-0.2
				c-1,0-1.8,0.2-2.3,0.6c-0.5,0.4-0.8,0.9-0.8,1.6c0,0.5,0.1,0.9,0.4,1.2c0.3,0.3,0.7,0.5,1.3,0.7c0.6,0.2,1.3,0.4,2.2,0.6
				c1.1,0.2,2,0.6,2.8,0.9c0.8,0.4,1.4,0.8,1.8,1.4c0.4,0.6,0.6,1.4,0.6,2.3c0,0.8-0.1,1.5-0.5,2.1s-0.7,1.1-1.3,1.4
				c-0.5,0.4-1.2,0.6-1.9,0.8c-0.7,0.2-1.5,0.3-2.3,0.3c-0.8,0-1.6-0.1-2.4-0.3s-1.5-0.4-2.2-0.7s-1.4-0.7-2-1.2l1.2-2.1
				c0.2,0.2,0.5,0.4,0.8,0.6s0.8,0.4,1.3,0.7c0.5,0.2,1,0.4,1.6,0.5c0.6,0.1,1.2,0.2,1.8,0.2c1,0,1.8-0.2,2.3-0.5s0.8-0.9,0.8-1.5
				c0-0.5-0.2-0.9-0.5-1.3c-0.4-0.3-0.9-0.6-1.5-0.8s-1.4-0.4-2.3-0.7c-1-0.3-1.9-0.6-2.6-0.9c-0.7-0.3-1.2-0.8-1.6-1.3
				c-0.3-0.5-0.5-1.2-0.5-2c0-1,0.2-1.9,0.8-2.6s1.2-1.3,2.1-1.6c0.9-0.4,1.9-0.6,2.9-0.6c0.7,0,1.4,0.1,2,0.2s1.2,0.4,1.8,0.6
				s1.1,0.6,1.5,0.9L497.7,92.4z"/>
			<path class="st0" d="M517.4,102.4v2.2h-10.9V88.7h10.7v2.2H509v4.5h7.1v2.1H509v4.9L517.4,102.4L517.4,102.4z"/>
		</g>
	</g>
</g>
<g>
	<path class="st0" d="M278,117.3c0-0.5,0.1-1,0.3-1.5c0.2-0.5,0.4-0.9,0.8-1.3c0.3-0.4,0.7-0.7,1.2-0.9c0.5-0.2,1-0.4,1.6-0.4
		c0.7,0,1.3,0.2,1.9,0.5c0.5,0.3,0.9,0.8,1.1,1.3l-0.8,0.5c-0.2-0.3-0.4-0.6-0.6-0.8s-0.5-0.3-0.8-0.4c-0.3-0.1-0.6-0.1-0.8-0.1
		c-0.4,0-0.8,0.1-1.2,0.3c-0.3,0.2-0.6,0.4-0.9,0.7c-0.2,0.3-0.4,0.6-0.5,1c-0.1,0.4-0.2,0.8-0.2,1.1c0,0.4,0.1,0.8,0.2,1.2
		c0.1,0.4,0.3,0.7,0.6,1c0.2,0.3,0.6,0.5,0.9,0.7c0.3,0.2,0.7,0.3,1.1,0.3c0.3,0,0.6,0,0.9-0.1c0.3-0.1,0.6-0.2,0.8-0.5
		s0.5-0.5,0.6-0.8l0.8,0.5c-0.2,0.4-0.4,0.7-0.8,1s-0.7,0.5-1.2,0.6c-0.4,0.1-0.9,0.2-1.3,0.2c-0.5,0-1.1-0.1-1.5-0.4
		s-0.9-0.6-1.2-1s-0.6-0.9-0.8-1.3C278.1,118.4,278,117.9,278,117.3z"/>
	<path class="st0" d="M290.6,121.5c-0.6,0-1.1-0.1-1.5-0.3c-0.5-0.2-0.9-0.5-1.2-0.9c-0.3-0.4-0.6-0.8-0.8-1.3
		c-0.2-0.5-0.3-1-0.3-1.5c0-0.5,0.1-1,0.3-1.5c0.2-0.5,0.5-0.9,0.8-1.3c0.3-0.4,0.8-0.7,1.2-0.9s1-0.3,1.5-0.3
		c0.6,0,1.1,0.1,1.5,0.4c0.5,0.2,0.9,0.6,1.2,0.9c0.3,0.4,0.6,0.8,0.8,1.3c0.2,0.5,0.3,1,0.3,1.5c0,0.5-0.1,1-0.3,1.5
		c-0.2,0.5-0.5,0.9-0.8,1.3c-0.3,0.4-0.8,0.7-1.2,0.9C291.7,121.4,291.2,121.5,290.6,121.5z M287.9,117.4c0,0.4,0.1,0.8,0.2,1.2
		s0.3,0.7,0.6,1s0.5,0.5,0.9,0.7s0.7,0.3,1.1,0.3c0.4,0,0.8-0.1,1.2-0.3s0.6-0.4,0.9-0.7c0.2-0.3,0.4-0.6,0.5-1
		c0.1-0.4,0.2-0.8,0.2-1.1c0-0.4-0.1-0.8-0.2-1.2c-0.1-0.4-0.3-0.7-0.6-1s-0.5-0.5-0.9-0.7s-0.7-0.3-1.1-0.3c-0.4,0-0.8,0.1-1.2,0.3
		c-0.3,0.2-0.6,0.4-0.9,0.7c-0.2,0.3-0.4,0.6-0.6,1C287.9,116.6,287.9,117,287.9,117.4z"/>
	<path class="st0" d="M298,115.3v6.2h-1v-8.1h0.9l4.9,6.3v-6.3h1v8.1h-0.9L298,115.3z"/>
	<path class="st0" d="M306.4,117.3c0-0.5,0.1-1,0.3-1.5c0.2-0.5,0.4-0.9,0.8-1.3c0.3-0.4,0.7-0.7,1.2-0.9c0.5-0.2,1-0.4,1.6-0.4
		c0.7,0,1.3,0.2,1.9,0.5c0.5,0.3,0.9,0.8,1.1,1.3l-0.8,0.5c-0.2-0.3-0.4-0.6-0.6-0.8s-0.5-0.3-0.8-0.4c-0.3-0.1-0.6-0.1-0.8-0.1
		c-0.4,0-0.8,0.1-1.2,0.3c-0.3,0.2-0.6,0.4-0.9,0.7c-0.2,0.3-0.4,0.6-0.5,1c-0.1,0.4-0.2,0.8-0.2,1.1c0,0.4,0.1,0.8,0.2,1.2
		c0.1,0.4,0.3,0.7,0.6,1c0.2,0.3,0.6,0.5,0.9,0.7c0.3,0.2,0.7,0.3,1.1,0.3c0.3,0,0.6,0,0.9-0.1c0.3-0.1,0.6-0.2,0.8-0.5
		s0.5-0.5,0.6-0.8l0.8,0.5c-0.2,0.4-0.4,0.7-0.8,1s-0.7,0.5-1.2,0.6c-0.4,0.1-0.9,0.2-1.3,0.2c-0.5,0-1.1-0.1-1.5-0.4
		s-0.9-0.6-1.2-1s-0.6-0.9-0.8-1.3C306.5,118.4,306.4,117.9,306.4,117.3z"/>
	<path class="st0" d="M321.3,120.5v0.9h-5.5v-8.1h5.4v0.9h-4.4v2.6h3.8v0.9h-3.8v2.8L321.3,120.5L321.3,120.5z"/>
	<path class="st0" d="M323.8,121.4v-8.1h3.4c0.4,0,0.7,0.1,1,0.2c0.3,0.1,0.5,0.3,0.8,0.6s0.4,0.5,0.5,0.8s0.2,0.6,0.2,0.9
		c0,0.4-0.1,0.9-0.3,1.3c-0.2,0.4-0.5,0.7-0.8,1c-0.4,0.2-0.8,0.4-1.2,0.4h-2.4v2.9L323.8,121.4L323.8,121.4z M324.8,117.6h2.4
		c0.3,0,0.5-0.1,0.7-0.2c0.2-0.1,0.4-0.4,0.5-0.6c0.1-0.3,0.2-0.5,0.2-0.8c0-0.3-0.1-0.6-0.2-0.9c-0.1-0.2-0.3-0.4-0.5-0.6
		c-0.2-0.1-0.5-0.2-0.7-0.2h-2.3V117.6z"/>
	<path class="st0" d="M337.9,114.3h-2.8v7.2h-1v-7.2h-2.8v-0.9h6.6V114.3z"/>
	<path class="st0" d="M343.9,121.4v-8.1h1v8.1H343.9z"/>
	<path class="st0" d="M349,115.3v6.2h-1v-8.1h0.9l4.9,6.3v-6.3h1v8.1h-0.9L349,115.3z"/>
	<path class="st0" d="M363.7,114.3h-2.8v7.2h-1v-7.2h-2.8v-0.9h6.6V114.3L363.7,114.3z"/>
	<path class="st0" d="M369,121.5c-0.6,0-1.1-0.1-1.6-0.3c-0.5-0.2-0.9-0.5-1.2-0.9c-0.3-0.4-0.6-0.8-0.8-1.3c-0.2-0.5-0.3-1-0.3-1.5
		c0-0.5,0.1-1,0.3-1.5c0.2-0.5,0.5-0.9,0.8-1.3c0.3-0.4,0.8-0.7,1.2-0.9c0.5-0.2,1-0.3,1.5-0.3c0.6,0,1.1,0.1,1.5,0.4
		c0.5,0.2,0.9,0.6,1.2,0.9c0.3,0.4,0.6,0.8,0.8,1.3c0.2,0.5,0.3,1,0.3,1.5c0,0.5-0.1,1-0.3,1.5c-0.2,0.5-0.5,0.9-0.8,1.3
		s-0.8,0.7-1.2,0.9C370.1,121.4,369.5,121.5,369,121.5z M366.2,117.4c0,0.4,0.1,0.8,0.2,1.2s0.3,0.7,0.6,1s0.5,0.5,0.9,0.7
		c0.3,0.2,0.7,0.3,1.1,0.3c0.4,0,0.8-0.1,1.2-0.3s0.6-0.4,0.9-0.7s0.4-0.6,0.6-1c0.1-0.4,0.2-0.8,0.2-1.1c0-0.4-0.1-0.8-0.2-1.2
		s-0.3-0.7-0.6-1s-0.5-0.5-0.9-0.7c-0.3-0.2-0.7-0.3-1.1-0.3c-0.4,0-0.8,0.1-1.2,0.3c-0.3,0.2-0.6,0.4-0.9,0.7
		c-0.2,0.3-0.4,0.6-0.5,1C366.3,116.6,366.2,117,366.2,117.4z"/>
	<path class="st0" d="M378.9,117.3c0-0.5,0.1-1,0.3-1.5c0.2-0.5,0.4-0.9,0.8-1.3c0.3-0.4,0.7-0.7,1.2-0.9s1-0.4,1.6-0.4
		c0.7,0,1.3,0.2,1.9,0.5c0.5,0.3,0.9,0.8,1.1,1.3l-0.8,0.5c-0.2-0.3-0.4-0.6-0.6-0.8s-0.5-0.3-0.8-0.4c-0.3-0.1-0.6-0.1-0.8-0.1
		c-0.4,0-0.8,0.1-1.2,0.3c-0.3,0.2-0.6,0.4-0.9,0.7c-0.2,0.3-0.4,0.6-0.5,1c-0.1,0.4-0.2,0.8-0.2,1.1c0,0.4,0.1,0.8,0.2,1.2
		c0.1,0.4,0.3,0.7,0.6,1c0.2,0.3,0.5,0.5,0.9,0.7c0.3,0.2,0.7,0.3,1.1,0.3c0.3,0,0.6,0,0.9-0.1c0.3-0.1,0.6-0.2,0.8-0.5
		c0.3-0.2,0.5-0.5,0.6-0.8l0.9,0.5c-0.2,0.4-0.4,0.7-0.8,1s-0.7,0.5-1.2,0.6c-0.4,0.1-0.9,0.2-1.3,0.2c-0.6,0-1.1-0.1-1.5-0.4
		c-0.5-0.2-0.9-0.6-1.2-1s-0.6-0.9-0.8-1.3C379,118.4,378.9,117.9,378.9,117.3z"/>
	<path class="st0" d="M391.5,121.5c-0.6,0-1.1-0.1-1.5-0.3c-0.5-0.2-0.9-0.5-1.2-0.9c-0.3-0.4-0.6-0.8-0.8-1.3
		c-0.2-0.5-0.3-1-0.3-1.5c0-0.5,0.1-1,0.3-1.5c0.2-0.5,0.5-0.9,0.8-1.3c0.4-0.4,0.8-0.7,1.2-0.9c0.5-0.2,1-0.3,1.5-0.3
		c0.6,0,1.1,0.1,1.6,0.4c0.5,0.2,0.9,0.6,1.2,0.9c0.3,0.4,0.6,0.8,0.8,1.3c0.2,0.5,0.3,1,0.3,1.5c0,0.5-0.1,1-0.3,1.5
		c-0.2,0.5-0.5,0.9-0.8,1.3s-0.8,0.7-1.2,0.9C392.5,121.4,392,121.5,391.5,121.5z M388.7,117.4c0,0.4,0.1,0.8,0.2,1.2s0.3,0.7,0.6,1
		s0.5,0.5,0.9,0.7c0.3,0.2,0.7,0.3,1.1,0.3c0.4,0,0.8-0.1,1.2-0.3s0.6-0.4,0.9-0.7s0.4-0.6,0.6-1c0.1-0.4,0.2-0.8,0.2-1.1
		c0-0.4-0.1-0.8-0.2-1.2s-0.3-0.7-0.6-1s-0.5-0.5-0.9-0.7c-0.3-0.2-0.7-0.3-1.1-0.3c-0.4,0-0.8,0.1-1.2,0.3
		c-0.3,0.2-0.6,0.4-0.9,0.7c-0.2,0.3-0.4,0.6-0.5,1C388.8,116.6,388.7,117,388.7,117.4z"/>
	<path class="st0" d="M404.8,121.4v-6.2l-2.7,4.7h-0.6l-2.7-4.7v6.2h-1v-8.1h1.1l2.9,5.2l2.9-5.2h1.1v8.1L404.8,121.4L404.8,121.4z"
		/>
	<path class="st0" d="M408.9,121.4v-8.1h3.4c0.4,0,0.7,0.1,1,0.2c0.3,0.1,0.6,0.3,0.8,0.6s0.4,0.5,0.5,0.8s0.2,0.6,0.2,0.9
		c0,0.4-0.1,0.9-0.3,1.3c-0.2,0.4-0.5,0.7-0.8,1c-0.4,0.2-0.8,0.4-1.2,0.4h-2.4v2.9L408.9,121.4L408.9,121.4z M409.9,117.6h2.4
		c0.3,0,0.5-0.1,0.7-0.2c0.2-0.1,0.4-0.4,0.5-0.6c0.1-0.3,0.2-0.5,0.2-0.8c0-0.3-0.1-0.6-0.2-0.9c-0.1-0.2-0.3-0.4-0.5-0.6
		c-0.2-0.1-0.5-0.2-0.7-0.2h-2.3V117.6L409.9,117.6z"/>
	<path class="st0" d="M417.1,121.4v-8.1h1v7.2h4.5v0.9H417.1z"/>
	<path class="st0" d="M430.4,120.5v0.9h-5.5v-8.1h5.4v0.9h-4.4v2.6h3.8v0.9h-3.8v2.8L430.4,120.5L430.4,120.5z"/>
	<path class="st0" d="M438.8,114.3H436v7.2h-1v-7.2h-2.8v-0.9h6.6V114.3L438.8,114.3z"/>
	<path class="st0" d="M441,121.4v-8.1h1v8.1H441z"/>
	<path class="st0" d="M448.4,121.5c-0.6,0-1.1-0.1-1.6-0.3c-0.5-0.2-0.9-0.5-1.2-0.9c-0.3-0.4-0.6-0.8-0.8-1.3
		c-0.2-0.5-0.3-1-0.3-1.5c0-0.5,0.1-1,0.3-1.5c0.2-0.5,0.5-0.9,0.8-1.3c0.3-0.4,0.8-0.7,1.2-0.9c0.5-0.2,1-0.3,1.5-0.3
		c0.6,0,1.1,0.1,1.5,0.4c0.5,0.2,0.9,0.6,1.2,0.9c0.3,0.4,0.6,0.8,0.8,1.3c0.2,0.5,0.3,1,0.3,1.5c0,0.5-0.1,1-0.3,1.5
		c-0.2,0.5-0.5,0.9-0.8,1.3s-0.8,0.7-1.2,0.9C449.5,121.4,449,121.5,448.4,121.5z M445.7,117.4c0,0.4,0.1,0.8,0.2,1.2
		c0.1,0.4,0.3,0.7,0.6,1c0.2,0.3,0.5,0.5,0.9,0.7c0.3,0.2,0.7,0.3,1.1,0.3c0.4,0,0.8-0.1,1.2-0.3s0.6-0.4,0.9-0.7
		c0.2-0.3,0.4-0.6,0.5-1c0.1-0.4,0.2-0.8,0.2-1.1c0-0.4-0.1-0.8-0.2-1.2c-0.1-0.4-0.3-0.7-0.6-1s-0.5-0.5-0.9-0.7s-0.7-0.3-1.1-0.3
		c-0.4,0-0.8,0.1-1.2,0.3c-0.3,0.2-0.6,0.4-0.9,0.7c-0.2,0.3-0.4,0.6-0.6,1C445.7,116.6,445.7,117,445.7,117.4z"/>
	<path class="st0" d="M455.8,115.3v6.2h-1v-8.1h0.9l4.9,6.3v-6.3h1v8.1h-0.9L455.8,115.3z"/>
</g>
</svg>
