<?xml version="1.0" encoding="utf-8"?>
<!-- Generator: Adobe Illustrator 28.0.0, SVG Export Plug-In . SVG Version: 6.00 Build 0)  -->
<svg version="1.1" id="Layer_1" xmlns="http://www.w3.org/2000/svg" xmlns:xlink="http://www.w3.org/1999/xlink" x="0px" y="0px"
	 viewBox="0 0 73 15.8" style="enable-background:new 0 0 73 15.8;" xml:space="preserve">
<style type="text/css">
	.st0{fill-opacity:0;}
	.st1{fill:#FFFFFF;}
</style>
<path class="st0" d="M0-17.2h73v50H0V-17.2z"/>
<path class="st1" d="M0,15.2V0.4h5.9c1.3,0,2.4,0.4,3.1,1.3c0.7,0.8,1.1,1.8,1.1,3.1V5c0,0.6-0.1,1.2-0.4,1.7
	c-0.2,0.5-0.6,0.9-1,1.2c0.5,0.3,0.8,0.8,1.1,1.3s0.4,1.1,0.4,1.7c0,1.2-0.4,2.3-1.3,3.2c-0.8,0.7-1.9,1.1-3.1,1.1H0z M3,6.3h2.7
	c0.4,0,0.7-0.1,1-0.4C6.8,5.6,7,5.2,7,4.8S6.9,4,6.6,3.7C6.4,3.4,6,3.3,5.6,3.3H3V6.3z M3,12.2h2.7c0.4,0,0.8-0.1,1.1-0.4
	s0.4-0.6,0.4-1.1c0-0.4-0.1-0.8-0.4-1C6.5,9.4,6.2,9.3,5.7,9.3H3V12.2z M19.6,10.6c-0.3-0.9-0.5-1.8-0.5-2.8s0.2-1.9,0.5-2.8
	s0.8-1.7,1.4-2.4c0.6-0.7,1.4-1.3,2.4-1.7c1-0.4,2.1-0.7,3.3-0.7c1.2,0,2.3,0.2,3.3,0.7s1.8,1,2.4,1.7C33,3.3,33.5,4.1,33.8,5
	c0.3,0.9,0.5,1.8,0.5,2.8s-0.2,1.9-0.5,2.8S33,12.3,32.4,13c-0.6,0.7-1.4,1.3-2.4,1.7c-1,0.4-2.1,0.7-3.3,0.7
	c-1.2,0-2.3-0.2-3.3-0.7c-1-0.4-1.8-1-2.4-1.7S19.9,11.5,19.6,10.6z M22.6,6.1c-0.2,0.5-0.3,1.1-0.3,1.7s0.1,1.1,0.3,1.7
	c0.2,0.5,0.5,1,0.8,1.5c0.4,0.4,0.8,0.8,1.4,1c0.6,0.3,1.2,0.4,1.9,0.4s1.4-0.1,1.9-0.4c0.6-0.3,1-0.6,1.4-1s0.6-0.9,0.8-1.5
	C31,9,31.1,8.4,31.1,7.8S31,6.7,30.8,6.1c-0.2-0.5-0.5-1-0.8-1.5c-0.4-0.4-0.8-0.8-1.4-1s-1.2-0.4-1.9-0.4s-1.4,0.1-1.9,0.4
	c-0.6,0.3-1,0.6-1.4,1C23.1,5.1,22.8,5.5,22.6,6.1z M44,15.2V0.1h0.8l7.5,8.7V0.4h3v15.1h-0.8L47,7.1v8h-3V15.2z M65.4,15.2V0.4h7.4
	v3h-4.4v2.9h3.9v3h-3.9v3H73v3L65.4,15.2L65.4,15.2z"/>
</svg>
