<?xml version="1.0" encoding="utf-8"?>
<!-- Generator: Adobe Illustrator 23.0.2, SVG Export Plug-In . SVG Version: 6.00 Build 0)  -->
<svg version="1.1" id="Layer_1" xmlns="http://www.w3.org/2000/svg" xmlns:xlink="http://www.w3.org/1999/xlink" x="0px" y="0px"
	 viewBox="0 0 317.36 262.1" style="enable-background:new 0 0 317.36 262.1;" xml:space="preserve">
<style type="text/css">
	.st0{fill:#26294C;}
	.st1{fill:#FEB400;}
	.st2{fill:#98C100;}
	.st3{fill:#46BABA;}
	.st4{fill:#E3856B;}
	.st5{fill:#80C4B7;}
</style>
<g>
	<g>
		<g>
			<g>
				<path class="st2" d="M158.69,139.61l-10.8-2.06v-13.97l2.22,0.44l8.59,1.63l10.8-2.05v13.96L158.69,139.61z M150.72,135.21
					l7.97,1.52l7.97-1.52v-8.21l-7.97,1.51l-7.97-1.51V135.21z"/>
			</g>
			<g>
				<path class="st2" d="M158.66,106.11c-17.2,0-31.19-13.99-31.19-31.19s13.99-31.19,31.19-31.19c17.2,0,31.2,13.99,31.2,31.19
					S175.87,106.11,158.66,106.11z M158.66,46.56c-15.64,0-28.36,12.72-28.36,28.36s12.72,28.36,28.36,28.36
					c15.64,0,28.37-12.72,28.37-28.36S174.31,46.56,158.66,46.56z"/>
			</g>
			<g>
				<path class="st2" d="M158.66,106.11c-17.2,0-31.19-13.99-31.19-31.19s13.99-31.19,31.19-31.19c17.2,0,31.2,13.99,31.2,31.19
					S175.87,106.11,158.66,106.11z M158.66,46.56c-15.64,0-28.36,12.72-28.36,28.36s12.72,28.36,28.36,28.36
					c15.64,0,28.37-12.72,28.37-28.36S174.31,46.56,158.66,46.56z"/>
			</g>
			<g>
				<path class="st2" d="M241.75,47.52L158.68,31.3L75.61,47.52l-0.16-1.54c-1.52-15.15-1.12-26.38-1.12-26.49l0.04-1.09L158.68,0
					l84.3,18.39l0.04,1.1c0,0.11,0.39,11.34-1.12,26.49L241.75,47.52z M77.14,20.68c-0.05,3.01-0.09,11.96,0.98,23.47l80.56-15.73
					l80.56,15.73c1.07-11.51,1.04-20.46,0.98-23.47L158.68,2.89L77.14,20.68z"/>
			</g>
			<g>
				<g>
					<path class="st2" d="M82.66,39.58l-0.05-1.7c-0.14-4.32-0.15-11.83-0.13-13.95l0.01-1.14l15.25-3.1v16.59L82.66,39.58z
						 M85.29,25.1c-0.01,2.52,0.01,7.34,0.09,10.99L94.9,34V23.15L85.29,25.1z"/>
				</g>
				<g>
					<path class="st2" d="M101.49,35.44V18.92l19.44-3.95v16.21L101.49,35.44z M104.32,21.23v10.69l13.78-3.02V18.43L104.32,21.23z"
						/>
				</g>
				<g>
					<path class="st2" d="M124.69,30.35V14.21l19.43-3.94v15.82L124.69,30.35z M127.52,16.52v10.31l13.78-3.02V13.73L127.52,16.52z"
						/>
				</g>
				<g>
					<path class="st2" d="M169.49,25.56l-10.8-2.66l-10.8,2.66V9.51l10.94-2.17l0.16,0.03l10.51,2.14V25.56z M158.5,20.03l0.53,0.04
						l7.63,1.88V11.82l-7.97-1.63l-7.97,1.63v10.13L158.5,20.03z"/>
				</g>
			</g>
			<g>
				<g>
					<path class="st2" d="M234.71,39.58l-15.07-3.31V19.69l15.25,3.1l0.01,1.14c0.02,2.11,0.01,9.59-0.13,13.95L234.71,39.58z
						 M222.46,34l9.52,2.09c0.08-3.67,0.1-8.47,0.09-10.99l-9.61-1.95V34z"/>
				</g>
				<g>
					<path class="st2" d="M215.87,35.44l-19.44-4.26V14.97l19.44,3.95V35.44z M199.26,28.9l13.78,3.02V21.23l-13.78-2.8V28.9z"/>
				</g>
				<g>
					<path class="st2" d="M192.67,30.35l-19.43-4.26V10.27l19.43,3.94V30.35z M176.07,23.81l13.78,3.02V16.52l-13.78-2.79V23.81z"/>
				</g>
			</g>
			<g>
				<path class="st2" d="M158.66,106.11c-17.2,0-31.19-13.99-31.19-31.19s13.99-31.19,31.19-31.19c17.2,0,31.2,13.99,31.2,31.19
					S175.87,106.11,158.66,106.11z M158.66,46.56c-15.64,0-28.36,12.72-28.36,28.36s12.72,28.36,28.36,28.36
					c15.64,0,28.37-12.72,28.37-28.36S174.31,46.56,158.66,46.56z"/>
			</g>
			<g>
				<path class="st2" d="M120.89,132.42l-19.46-3.69v-13.97l19.46,3.69V132.42z M104.26,126.38l13.8,2.62v-8.22l-13.8-2.62V126.38z"
					/>
			</g>
			<g>
				<path class="st2" d="M141.69,117.46L94,108.15l-0.33-0.52c-0.79-1.25-1.56-2.55-2.3-3.87c-10.22-18.39-14.3-41.57-15.91-57.78
					l-0.13-1.28l28.43-5.55l0.14,1.56c1.27,14.24,4.51,34.3,12.69,49.03c4.24,7.62,11.33,15.78,21.1,24.26L141.69,117.46z
					 M95.74,105.61l36.26,7.08c-8.06-7.48-14.07-14.72-17.88-21.58c-8.13-14.63-11.5-34.2-12.89-48.59l-22.83,4.46
					c1.68,15.87,5.72,37.92,15.44,55.41C94.46,103.48,95.09,104.56,95.74,105.61z"/>
			</g>
			<g>
				<path class="st2" d="M144.11,136.85l-19.46-3.71v-13.97l19.46,3.71V136.85z M127.48,130.8l13.8,2.63v-8.22l-13.8-2.63V130.8z"/>
			</g>
			<g>
				<path class="st2" d="M173.26,136.85v-13.97l19.46-3.71v13.97L173.26,136.85z M176.09,125.21v8.22l13.8-2.63v-8.22L176.09,125.21
					z"/>
			</g>
			<g>
				<path class="st2" d="M158.68,163.44l-0.66-0.35c-0.16-0.09-16.57-8.84-33.7-22.67l-4.44-3.58l38.8,7.58l38.79-7.58l-4.44,3.58
					c-17.13,13.83-33.52,22.58-33.69,22.67L158.68,163.44z M130.71,141.84c13.22,10.09,25.1,16.81,27.98,18.39
					c2.88-1.59,14.75-8.31,27.97-18.39l-27.97,5.47L130.71,141.84z"/>
			</g>
			<g>
				<path class="st2" d="M196.49,132.42v-13.97l19.46-3.69v13.97L196.49,132.42z M199.32,120.79V129l13.81-2.62v-8.22L199.32,120.79
					z"/>
			</g>
			<g>
				<path class="st2" d="M175.61,117.47l4-3.47c9.82-8.52,16.94-16.68,21.15-24.27c8.12-14.62,11.36-34.74,12.66-49.04l0.14-1.56
					l28.47,5.56l-0.13,1.28c-1.63,16.21-5.71,39.4-15.92,57.78c-0.74,1.33-1.52,2.63-2.3,3.88l-0.32,0.52L175.61,117.47z
					 M216.1,42.51c-1.41,14.45-4.79,34.07-12.85,48.6c-3.8,6.84-9.82,14.08-17.93,21.59l36.31-7.09c0.65-1.04,1.29-2.13,1.9-3.23
					c9.71-17.48,13.76-39.53,15.45-55.4L216.1,42.51z"/>
			</g>
		</g>
		<g>
			<g>
				<g>
					<path class="st3" d="M22.78,191.1c-0.29-0.35-0.74-0.73-1.37-1.13c-0.62-0.4-1.34-0.77-2.16-1.1
						c-0.82-0.34-1.71-0.62-2.69-0.86c-0.98-0.24-1.97-0.36-3-0.36c-2.24,0-3.9,0.41-4.99,1.24c-1.09,0.83-1.63,1.97-1.63,3.44
						c0,1.08,0.3,1.94,0.91,2.58c0.61,0.64,1.54,1.15,2.8,1.55c1.26,0.4,2.82,0.82,4.68,1.26c2.33,0.54,4.34,1.19,6.02,1.96
						c1.68,0.76,2.97,1.76,3.88,3.01c0.91,1.24,1.37,2.89,1.37,4.96c0,1.69-0.33,3.15-0.98,4.39c-0.66,1.24-1.56,2.25-2.71,3.03
						c-1.15,0.78-2.48,1.36-3.98,1.74c-1.5,0.38-3.12,0.57-4.84,0.57c-1.69,0-3.38-0.18-5.06-0.55c-1.68-0.37-3.28-0.89-4.79-1.58
						c-1.52-0.69-2.93-1.53-4.24-2.52l2.49-4.6c0.38,0.42,0.97,0.87,1.77,1.37c0.8,0.5,1.72,0.97,2.76,1.41
						c1.04,0.45,2.17,0.82,3.4,1.13c1.23,0.3,2.48,0.46,3.76,0.46c2.14,0,3.78-0.37,4.92-1.12c1.13-0.74,1.7-1.83,1.7-3.26
						c0-1.11-0.38-2.01-1.13-2.7c-0.75-0.68-1.82-1.26-3.21-1.74c-1.39-0.48-3.06-0.95-5.01-1.43c-2.24-0.57-4.11-1.23-5.61-1.96
						c-1.5-0.73-2.62-1.65-3.36-2.77c-0.74-1.11-1.1-2.56-1.1-4.35c0-2.23,0.54-4.11,1.61-5.66c1.07-1.54,2.55-2.71,4.44-3.49
						c1.89-0.78,3.98-1.17,6.28-1.17c1.53,0,3,0.17,4.39,0.5c1.39,0.34,2.69,0.79,3.88,1.37c1.2,0.58,2.26,1.23,3.19,1.97
						L22.78,191.1z"/>
					<path class="st3" d="M66.5,187.84H55.19v29.3h-5.42v-29.3H38.41v-4.75h28.1V187.84z"/>
					<path class="st3" d="M87.26,183.1h5.08l13.23,34.04h-5.66l-3.33-9.25H82.98l-3.34,9.25h-5.66L87.26,183.1z M95.17,203.91
						L89.81,189l-5.39,14.91H95.17z"/>
					<path class="st3" d="M119.39,217.14V183.1h5.42v29.3h18.22v4.75H119.39z"/>
					<path class="st3" d="M164.41,183.24h5.03l4.22,11.6l4.22-11.6h5.08l-5.85,15.1l5.08,12.56l10.64-27.81h5.85l-13.9,34.04h-4.7
						l-6.38-15.25l-6.42,15.25h-4.7l-13.9-34.04h5.85l10.64,27.81l5.08-12.56L164.41,183.24z"/>
					<path class="st3" d="M219.31,183.1h5.08l13.23,34.04h-5.66l-3.33-9.25h-13.61l-3.34,9.25h-5.66L219.31,183.1z M227.21,203.91
						L221.85,189l-5.39,14.91H227.21z"/>
					<path class="st3" d="M251.44,217.14V183.1h14.82c1.53,0,2.94,0.32,4.22,0.96c1.28,0.64,2.39,1.49,3.33,2.54
						c0.94,1.05,1.68,2.25,2.21,3.57c0.53,1.33,0.79,2.66,0.79,4c0,1.53-0.27,2.98-0.82,4.34c-0.54,1.36-1.32,2.53-2.33,3.52
						c-1.01,0.99-2.18,1.71-3.52,2.16l8.01,12.95h-6.04l-7.38-11.84h-7.86v11.84H251.44z M256.85,200.55h9.35
						c0.99,0,1.87-0.3,2.64-0.89c0.77-0.59,1.37-1.37,1.82-2.33s0.67-2.01,0.67-3.16c0-1.18-0.26-2.25-0.79-3.21
						s-1.19-1.72-1.99-2.28c-0.8-0.56-1.68-0.84-2.64-0.84h-9.06V200.55z"/>
					<path class="st3" d="M317.36,187.84h-11.32v29.3h-5.42v-29.3h-11.36v-4.75h28.1V187.84z"/>
				</g>
				<g>
					<path class="st3" d="M11.12,245.18v-15.89h6.67c0.72,0,1.37,0.15,1.97,0.45c0.6,0.3,1.12,0.69,1.57,1.19
						c0.45,0.49,0.79,1.05,1.03,1.67c0.24,0.62,0.36,1.24,0.36,1.87c0,0.88-0.2,1.72-0.59,2.51c-0.4,0.79-0.95,1.44-1.67,1.94
						c-0.72,0.5-1.56,0.75-2.53,0.75h-4.28v5.53H11.12z M13.65,237.44h4.12c0.46,0,0.87-0.13,1.23-0.39
						c0.36-0.26,0.64-0.62,0.85-1.07c0.21-0.46,0.31-0.97,0.31-1.53c0-0.58-0.12-1.09-0.36-1.53c-0.24-0.44-0.55-0.78-0.93-1.03
						c-0.38-0.25-0.79-0.37-1.22-0.37h-4.01V237.44z"/>
					<path class="st3" d="M29.54,245.18v-15.89h6.92c0.72,0,1.37,0.15,1.97,0.45c0.6,0.3,1.12,0.69,1.56,1.19
						c0.44,0.49,0.78,1.05,1.03,1.67c0.25,0.62,0.37,1.24,0.37,1.87c0,0.72-0.13,1.39-0.38,2.03c-0.25,0.63-0.62,1.18-1.09,1.65
						c-0.47,0.46-1.02,0.8-1.64,1.01l3.74,6.04h-2.82l-3.45-5.53h-3.67v5.53H29.54z M32.07,237.44h4.36c0.46,0,0.87-0.14,1.23-0.41
						c0.36-0.28,0.64-0.64,0.85-1.09c0.21-0.45,0.31-0.94,0.31-1.48c0-0.55-0.12-1.05-0.37-1.5c-0.25-0.45-0.56-0.8-0.93-1.06
						c-0.37-0.26-0.78-0.39-1.23-0.39h-4.23V237.44z"/>
					<path class="st3" d="M55.35,245.29c-1.12,0-2.14-0.22-3.07-0.67c-0.93-0.45-1.73-1.06-2.41-1.82c-0.68-0.77-1.2-1.63-1.57-2.6
						c-0.37-0.96-0.55-1.95-0.55-2.97c0-1.06,0.19-2.07,0.58-3.03c0.39-0.96,0.93-1.82,1.62-2.57c0.69-0.75,1.5-1.35,2.42-1.79
						c0.92-0.44,1.93-0.66,3.03-0.66c1.15,0,2.18,0.23,3.1,0.69c0.92,0.46,1.71,1.08,2.38,1.86c0.67,0.78,1.19,1.64,1.54,2.6
						c0.36,0.96,0.54,1.94,0.54,2.95c0,1.04-0.19,2.05-0.56,3.01c-0.37,0.96-0.91,1.82-1.6,2.57c-0.69,0.75-1.5,1.35-2.42,1.78
						C57.48,245.08,56.47,245.29,55.35,245.29z M50.33,237.24c0,0.76,0.12,1.49,0.35,2.18c0.23,0.69,0.57,1.31,1.01,1.86
						c0.44,0.54,0.97,0.97,1.59,1.29c0.62,0.31,1.32,0.47,2.12,0.47c0.81,0,1.52-0.16,2.15-0.49c0.63-0.33,1.16-0.77,1.59-1.33
						c0.43-0.56,0.76-1.18,0.98-1.87c0.22-0.69,0.34-1.39,0.34-2.1c0-0.76-0.12-1.48-0.36-2.17c-0.24-0.69-0.58-1.3-1.03-1.85
						c-0.45-0.54-0.98-0.97-1.6-1.29c-0.62-0.31-1.31-0.47-2.07-0.47c-0.82,0-1.54,0.16-2.16,0.49c-0.62,0.33-1.15,0.77-1.58,1.32
						c-0.43,0.55-0.76,1.17-0.98,1.86C50.45,235.82,50.33,236.52,50.33,237.24z"/>
					<path class="st3" d="M70.08,245.18v-15.89h5.64c1.72,0,3.14,0.35,4.29,1.06c1.14,0.71,2,1.66,2.58,2.87
						c0.58,1.2,0.87,2.53,0.87,4c0,1.61-0.32,3.01-0.95,4.21c-0.63,1.19-1.53,2.12-2.7,2.78c-1.16,0.66-2.53,0.98-4.1,0.98H70.08z
						 M80.91,237.21c0-1.12-0.21-2.1-0.62-2.95c-0.41-0.85-1-1.52-1.77-2.01c-0.77-0.49-1.71-0.74-2.81-0.74h-3.11v11.46h3.11
						c1.12,0,2.06-0.25,2.83-0.76c0.77-0.51,1.35-1.19,1.76-2.06C80.71,239.28,80.91,238.3,80.91,237.21z"/>
					<path class="st3" d="M97.2,245.29c-1.27,0-2.34-0.22-3.21-0.65c-0.87-0.43-1.57-1.02-2.1-1.77c-0.53-0.75-0.92-1.6-1.16-2.55
						c-0.25-0.95-0.37-1.95-0.37-2.98v-8.06h2.53v8.06c0,0.73,0.07,1.44,0.21,2.12c0.14,0.68,0.38,1.29,0.7,1.82
						c0.33,0.54,0.77,0.96,1.32,1.28c0.55,0.31,1.24,0.47,2.06,0.47c0.85,0,1.55-0.16,2.1-0.47c0.55-0.31,1-0.75,1.33-1.3
						c0.34-0.55,0.57-1.16,0.72-1.84c0.14-0.67,0.21-1.37,0.21-2.08v-8.06h2.53v8.06c0,1.09-0.13,2.12-0.39,3.08
						c-0.26,0.96-0.66,1.81-1.21,2.54c-0.55,0.73-1.25,1.3-2.13,1.71C99.48,245.09,98.43,245.29,97.2,245.29z"/>
					<path class="st3" d="M110.88,237.1c0-0.97,0.17-1.92,0.51-2.85c0.34-0.93,0.85-1.78,1.51-2.55c0.66-0.77,1.47-1.38,2.42-1.84
						c0.95-0.46,2.03-0.68,3.23-0.68c1.45,0,2.69,0.32,3.73,0.97s1.81,1.48,2.32,2.5l-1.97,1.32c-0.28-0.64-0.65-1.15-1.11-1.52
						c-0.46-0.37-0.95-0.63-1.49-0.78c-0.54-0.15-1.06-0.22-1.57-0.22c-0.82,0-1.54,0.17-2.17,0.5c-0.63,0.34-1.15,0.78-1.58,1.33
						c-0.43,0.55-0.74,1.17-0.95,1.86c-0.21,0.69-0.31,1.37-0.31,2.06c0,0.78,0.12,1.51,0.37,2.22c0.25,0.7,0.6,1.32,1.05,1.87
						c0.46,0.54,0.99,0.97,1.61,1.29c0.62,0.31,1.3,0.47,2.05,0.47c0.52,0,1.06-0.09,1.61-0.27c0.55-0.18,1.06-0.46,1.53-0.85
						c0.47-0.39,0.84-0.88,1.11-1.48l2.08,1.16c-0.31,0.79-0.82,1.46-1.51,2.01c-0.69,0.55-1.47,0.97-2.34,1.25
						c-0.87,0.28-1.72,0.43-2.57,0.43c-1.09,0-2.1-0.24-3.02-0.71s-1.73-1.1-2.41-1.88c-0.68-0.78-1.21-1.66-1.58-2.64
						C111.07,239.09,110.88,238.1,110.88,237.1z"/>
					<path class="st3" d="M143.34,231.51h-5.28v13.68h-2.53v-13.68h-5.31v-2.22h13.12V231.51z"/>
					<path class="st3" d="M149.94,245.18v-15.89h2.53v15.89H149.94z"/>
					<path class="st3" d="M167.09,245.29c-1.12,0-2.14-0.22-3.07-0.67c-0.93-0.45-1.73-1.06-2.41-1.82c-0.68-0.77-1.2-1.63-1.57-2.6
						c-0.37-0.96-0.55-1.95-0.55-2.97c0-1.06,0.19-2.07,0.58-3.03c0.39-0.96,0.93-1.82,1.62-2.57c0.69-0.75,1.5-1.35,2.42-1.79
						c0.92-0.44,1.93-0.66,3.03-0.66c1.15,0,2.18,0.23,3.1,0.69c0.92,0.46,1.71,1.08,2.38,1.86c0.67,0.78,1.19,1.64,1.54,2.6
						c0.36,0.96,0.54,1.94,0.54,2.95c0,1.04-0.19,2.05-0.56,3.01c-0.37,0.96-0.91,1.82-1.6,2.57c-0.69,0.75-1.5,1.35-2.42,1.78
						C169.22,245.08,168.21,245.29,167.09,245.29z M162.07,237.24c0,0.76,0.12,1.49,0.35,2.18c0.23,0.69,0.57,1.31,1.01,1.86
						c0.44,0.54,0.97,0.97,1.59,1.29c0.62,0.31,1.32,0.47,2.12,0.47c0.81,0,1.52-0.16,2.15-0.49c0.63-0.33,1.16-0.77,1.59-1.33
						c0.43-0.56,0.76-1.18,0.98-1.87c0.22-0.69,0.34-1.39,0.34-2.1c0-0.76-0.12-1.48-0.36-2.17c-0.24-0.69-0.58-1.3-1.03-1.85
						c-0.45-0.54-0.98-0.97-1.6-1.29c-0.62-0.31-1.31-0.47-2.07-0.47c-0.82,0-1.54,0.16-2.16,0.49c-0.62,0.33-1.15,0.77-1.58,1.32
						c-0.43,0.55-0.76,1.17-0.98,1.86C162.19,235.82,162.07,236.52,162.07,237.24z"/>
					<path class="st3" d="M184.35,233.95v11.24h-2.53v-15.89h2.06l9,11.48v-11.46h2.51v15.87h-2.17L184.35,233.95z"/>
					<path class="st3" d="M226.52,229.29v15.89h-2.51v-7.01H216v7.01h-2.53v-15.89H216v6.65h8.01v-6.65H226.52z"/>
					<path class="st3" d="M241.16,245.29c-1.12,0-2.14-0.22-3.07-0.67c-0.93-0.45-1.73-1.06-2.41-1.82c-0.68-0.77-1.2-1.63-1.57-2.6
						c-0.37-0.96-0.55-1.95-0.55-2.97c0-1.06,0.19-2.07,0.58-3.03c0.39-0.96,0.93-1.82,1.62-2.57c0.69-0.75,1.5-1.35,2.42-1.79
						c0.92-0.44,1.93-0.66,3.03-0.66c1.15,0,2.18,0.23,3.1,0.69c0.92,0.46,1.71,1.08,2.38,1.86c0.67,0.78,1.19,1.64,1.54,2.6
						c0.36,0.96,0.54,1.94,0.54,2.95c0,1.04-0.19,2.05-0.56,3.01c-0.37,0.96-0.91,1.82-1.6,2.57c-0.69,0.75-1.5,1.35-2.42,1.78
						C243.29,245.08,242.27,245.29,241.16,245.29z M236.14,237.24c0,0.76,0.12,1.49,0.35,2.18s0.57,1.31,1.01,1.86
						c0.44,0.54,0.97,0.97,1.59,1.29c0.62,0.31,1.32,0.47,2.12,0.47c0.81,0,1.52-0.16,2.15-0.49c0.63-0.33,1.16-0.77,1.59-1.33
						c0.43-0.56,0.76-1.18,0.98-1.87c0.22-0.69,0.34-1.39,0.34-2.1c0-0.76-0.12-1.48-0.36-2.17c-0.24-0.69-0.58-1.3-1.03-1.85
						c-0.45-0.54-0.98-0.97-1.6-1.29c-0.62-0.31-1.31-0.47-2.07-0.47c-0.82,0-1.54,0.16-2.16,0.49c-0.62,0.33-1.15,0.77-1.58,1.32
						c-0.43,0.55-0.76,1.17-0.98,1.86C236.25,235.82,236.14,236.52,236.14,237.24z"/>
					<path class="st3" d="M262.51,245.29c-1.27,0-2.34-0.22-3.21-0.65c-0.87-0.43-1.58-1.02-2.1-1.77c-0.53-0.75-0.92-1.6-1.16-2.55
						c-0.25-0.95-0.37-1.95-0.37-2.98v-8.06h2.53v8.06c0,0.73,0.07,1.44,0.21,2.12c0.14,0.68,0.38,1.29,0.7,1.82
						c0.33,0.54,0.77,0.96,1.32,1.28c0.55,0.31,1.24,0.47,2.06,0.47c0.85,0,1.55-0.16,2.1-0.47c0.55-0.31,1-0.75,1.33-1.3
						c0.34-0.55,0.57-1.16,0.72-1.84c0.14-0.67,0.21-1.37,0.21-2.08v-8.06h2.53v8.06c0,1.09-0.13,2.12-0.39,3.08
						c-0.26,0.96-0.66,1.81-1.21,2.54c-0.54,0.73-1.25,1.3-2.13,1.71C264.78,245.09,263.73,245.29,262.51,245.29z"/>
					<path class="st3" d="M286.59,233.03c-0.13-0.16-0.35-0.34-0.64-0.53c-0.29-0.19-0.63-0.36-1.01-0.51
						c-0.38-0.16-0.8-0.29-1.25-0.4c-0.46-0.11-0.92-0.17-1.4-0.17c-1.04,0-1.82,0.19-2.33,0.58c-0.51,0.39-0.76,0.92-0.76,1.6
						c0,0.51,0.14,0.91,0.43,1.2c0.28,0.3,0.72,0.54,1.31,0.72c0.59,0.19,1.32,0.38,2.18,0.59c1.09,0.25,2.03,0.56,2.81,0.91
						c0.78,0.36,1.39,0.82,1.81,1.4c0.43,0.58,0.64,1.35,0.64,2.32c0,0.79-0.15,1.47-0.46,2.05c-0.31,0.58-0.73,1.05-1.26,1.41
						c-0.54,0.36-1.16,0.63-1.86,0.81c-0.7,0.18-1.46,0.27-2.26,0.27c-0.79,0-1.58-0.09-2.36-0.26c-0.78-0.17-1.53-0.42-2.24-0.74
						c-0.71-0.32-1.37-0.71-1.98-1.18l1.16-2.15c0.18,0.19,0.46,0.41,0.83,0.64c0.37,0.23,0.8,0.45,1.29,0.66
						c0.48,0.21,1.01,0.38,1.59,0.53c0.57,0.14,1.16,0.21,1.76,0.21c1,0,1.76-0.17,2.29-0.52c0.53-0.35,0.79-0.85,0.79-1.52
						c0-0.52-0.18-0.94-0.53-1.26c-0.35-0.32-0.85-0.59-1.5-0.81c-0.65-0.22-1.43-0.45-2.34-0.67c-1.05-0.27-1.92-0.57-2.62-0.91
						c-0.7-0.34-1.22-0.77-1.57-1.29c-0.34-0.52-0.51-1.2-0.51-2.03c0-1.04,0.25-1.92,0.75-2.64c0.5-0.72,1.19-1.26,2.07-1.63
						c0.88-0.36,1.86-0.55,2.93-0.55c0.72,0,1.4,0.08,2.05,0.24c0.65,0.16,1.25,0.37,1.81,0.64c0.56,0.27,1.06,0.57,1.49,0.92
						L286.59,233.03z"/>
					<path class="st3" d="M306.25,242.97v2.22h-10.9v-15.89h10.7v2.22h-8.17v4.54h7.1v2.06h-7.1v4.86H306.25z"/>
				</g>
			</g>
		</g>
		<g>
			<path class="st3" d="M66.9,257.94c0-0.49,0.09-0.98,0.26-1.45c0.17-0.47,0.42-0.91,0.75-1.3c0.33-0.39,0.73-0.7,1.21-0.93
				c0.48-0.23,1.02-0.35,1.63-0.35c0.72,0,1.34,0.17,1.85,0.49c0.52,0.33,0.9,0.75,1.15,1.27l-0.81,0.52
				c-0.16-0.34-0.36-0.61-0.61-0.81c-0.25-0.2-0.51-0.34-0.8-0.43c-0.28-0.08-0.56-0.12-0.84-0.12c-0.45,0-0.84,0.09-1.19,0.27
				c-0.34,0.18-0.64,0.42-0.87,0.73c-0.23,0.3-0.41,0.64-0.53,1.02c-0.12,0.37-0.18,0.75-0.18,1.13c0,0.42,0.07,0.82,0.21,1.21
				c0.14,0.39,0.34,0.73,0.59,1.02c0.25,0.3,0.55,0.53,0.89,0.71c0.34,0.17,0.71,0.26,1.11,0.26c0.28,0,0.57-0.05,0.86-0.15
				c0.3-0.1,0.57-0.25,0.83-0.46c0.26-0.21,0.46-0.48,0.61-0.81l0.85,0.47c-0.17,0.4-0.42,0.74-0.77,1.02
				c-0.35,0.28-0.74,0.49-1.17,0.64c-0.43,0.14-0.85,0.22-1.27,0.22c-0.55,0-1.06-0.12-1.52-0.36c-0.46-0.24-0.86-0.56-1.2-0.96
				c-0.34-0.4-0.6-0.85-0.78-1.34C66.99,258.95,66.9,258.45,66.9,257.94z"/>
			<path class="st3" d="M79.5,262.1c-0.57,0-1.08-0.11-1.55-0.34c-0.46-0.23-0.86-0.54-1.2-0.93c-0.34-0.39-0.6-0.83-0.78-1.32
				c-0.18-0.49-0.27-0.99-0.27-1.51c0-0.54,0.1-1.05,0.29-1.54c0.19-0.49,0.46-0.93,0.81-1.31c0.34-0.38,0.75-0.69,1.21-0.91
				c0.46-0.22,0.97-0.34,1.51-0.34c0.57,0,1.08,0.12,1.55,0.35c0.46,0.24,0.86,0.55,1.19,0.94s0.59,0.83,0.77,1.32
				c0.18,0.49,0.27,0.98,0.27,1.49c0,0.54-0.1,1.05-0.28,1.54c-0.19,0.49-0.46,0.93-0.8,1.31c-0.34,0.38-0.75,0.68-1.21,0.9
				C80.55,261.99,80.05,262.1,79.5,262.1z M76.74,258.01c0,0.41,0.07,0.81,0.2,1.19c0.13,0.38,0.32,0.72,0.56,1.02
				c0.24,0.3,0.53,0.53,0.88,0.71s0.72,0.26,1.14,0.26c0.43,0,0.82-0.09,1.16-0.27c0.34-0.18,0.63-0.42,0.87-0.73
				s0.42-0.64,0.55-1.02c0.13-0.38,0.19-0.76,0.19-1.15c0-0.41-0.07-0.8-0.2-1.18c-0.13-0.38-0.32-0.72-0.57-1.02
				c-0.25-0.3-0.54-0.53-0.88-0.7c-0.34-0.17-0.71-0.26-1.12-0.26c-0.43,0-0.82,0.09-1.16,0.27c-0.34,0.18-0.63,0.42-0.87,0.72
				c-0.24,0.3-0.42,0.64-0.55,1.02C76.8,257.23,76.74,257.61,76.74,258.01z"/>
			<path class="st3" d="M86.89,255.86v6.19h-1.02v-8.07h0.86l4.94,6.31v-6.3h1.02v8.06h-0.93L86.89,255.86z"/>
			<path class="st3" d="M95.24,257.94c0-0.49,0.09-0.98,0.26-1.45c0.17-0.47,0.42-0.91,0.75-1.3c0.33-0.39,0.73-0.7,1.21-0.93
				c0.48-0.23,1.02-0.35,1.63-0.35c0.72,0,1.34,0.17,1.85,0.49c0.52,0.33,0.9,0.75,1.15,1.27l-0.81,0.52
				c-0.16-0.34-0.36-0.61-0.61-0.81c-0.25-0.2-0.51-0.34-0.8-0.43c-0.28-0.08-0.56-0.12-0.84-0.12c-0.45,0-0.84,0.09-1.19,0.27
				c-0.34,0.18-0.64,0.42-0.87,0.73c-0.23,0.3-0.41,0.64-0.53,1.02c-0.12,0.37-0.18,0.75-0.18,1.13c0,0.42,0.07,0.82,0.21,1.21
				c0.14,0.39,0.34,0.73,0.59,1.02c0.25,0.3,0.55,0.53,0.89,0.71c0.34,0.17,0.71,0.26,1.11,0.26c0.28,0,0.57-0.05,0.86-0.15
				c0.3-0.1,0.57-0.25,0.83-0.46c0.26-0.21,0.46-0.48,0.61-0.81l0.85,0.47c-0.17,0.4-0.42,0.74-0.77,1.02
				c-0.35,0.28-0.74,0.49-1.17,0.64c-0.43,0.14-0.85,0.22-1.27,0.22c-0.55,0-1.06-0.12-1.52-0.36c-0.46-0.24-0.86-0.56-1.2-0.96
				c-0.34-0.4-0.6-0.85-0.78-1.34C95.33,258.95,95.24,258.45,95.24,257.94z"/>
			<path class="st3" d="M110.14,261.13v0.91h-5.48v-8.07h5.38v0.91h-4.36v2.62h3.79v0.85h-3.79v2.79H110.14z"/>
			<path class="st3" d="M112.67,262.04v-8.07h3.37c0.36,0,0.68,0.07,0.98,0.22c0.3,0.15,0.55,0.34,0.77,0.59
				c0.22,0.25,0.39,0.52,0.51,0.83c0.12,0.31,0.18,0.62,0.18,0.94c0,0.44-0.1,0.86-0.3,1.26c-0.2,0.4-0.47,0.72-0.83,0.97
				c-0.36,0.25-0.77,0.37-1.25,0.37h-2.41v2.9H112.67z M113.7,258.23h2.35c0.28,0,0.53-0.08,0.73-0.23
				c0.21-0.15,0.37-0.36,0.49-0.61c0.12-0.26,0.18-0.54,0.18-0.84c0-0.32-0.07-0.6-0.2-0.86c-0.14-0.25-0.31-0.45-0.53-0.6
				c-0.22-0.14-0.46-0.22-0.73-0.22h-2.29V258.23z"/>
			<path class="st3" d="M126.72,254.88h-2.79v7.16h-1.02v-7.16h-2.79v-0.91h6.6V254.88z"/>
			<path class="st3" d="M132.71,262.04v-8.07h1.02v8.07H132.71z"/>
			<path class="st3" d="M137.83,255.86v6.19h-1.02v-8.07h0.86l4.94,6.31v-6.3h1.02v8.06h-0.93L137.83,255.86z"/>
			<path class="st3" d="M152.52,254.88h-2.79v7.16h-1.02v-7.16h-2.79v-0.91h6.6V254.88z"/>
			<path class="st3" d="M157.86,262.1c-0.57,0-1.08-0.11-1.55-0.34c-0.46-0.23-0.86-0.54-1.2-0.93c-0.34-0.39-0.6-0.83-0.78-1.32
				c-0.18-0.49-0.27-0.99-0.27-1.51c0-0.54,0.1-1.05,0.29-1.54c0.19-0.49,0.46-0.93,0.81-1.31c0.34-0.38,0.75-0.69,1.21-0.91
				c0.46-0.22,0.97-0.34,1.51-0.34c0.57,0,1.08,0.12,1.55,0.35c0.46,0.24,0.86,0.55,1.19,0.94c0.33,0.39,0.59,0.83,0.77,1.32
				c0.18,0.49,0.27,0.98,0.27,1.49c0,0.54-0.1,1.05-0.28,1.54c-0.19,0.49-0.46,0.93-0.8,1.31c-0.34,0.38-0.75,0.68-1.21,0.9
				C158.91,261.99,158.4,262.1,157.86,262.1z M155.09,258.01c0,0.41,0.07,0.81,0.2,1.19c0.13,0.38,0.32,0.72,0.56,1.02
				c0.24,0.3,0.53,0.53,0.88,0.71c0.34,0.17,0.72,0.26,1.14,0.26c0.43,0,0.82-0.09,1.16-0.27c0.34-0.18,0.63-0.42,0.87-0.73
				s0.42-0.64,0.55-1.02c0.13-0.38,0.19-0.76,0.19-1.15c0-0.41-0.07-0.8-0.2-1.18c-0.13-0.38-0.32-0.72-0.57-1.02
				c-0.25-0.3-0.54-0.53-0.88-0.7c-0.34-0.17-0.71-0.26-1.12-0.26c-0.43,0-0.82,0.09-1.16,0.27c-0.34,0.18-0.63,0.42-0.87,0.72
				c-0.24,0.3-0.42,0.64-0.55,1.02C155.16,257.23,155.09,257.61,155.09,258.01z"/>
			<path class="st3" d="M167.72,257.94c0-0.49,0.09-0.98,0.26-1.45c0.17-0.47,0.42-0.91,0.75-1.3c0.33-0.39,0.73-0.7,1.21-0.93
				c0.48-0.23,1.02-0.35,1.63-0.35c0.72,0,1.34,0.17,1.85,0.49c0.52,0.33,0.9,0.75,1.15,1.27l-0.81,0.52
				c-0.16-0.34-0.36-0.61-0.61-0.81c-0.25-0.2-0.51-0.34-0.8-0.43c-0.28-0.08-0.56-0.12-0.84-0.12c-0.45,0-0.84,0.09-1.19,0.27
				c-0.34,0.18-0.64,0.42-0.87,0.73c-0.23,0.3-0.41,0.64-0.53,1.02c-0.12,0.37-0.18,0.75-0.18,1.13c0,0.42,0.07,0.82,0.21,1.21
				c0.14,0.39,0.34,0.73,0.59,1.02c0.25,0.3,0.55,0.53,0.89,0.71c0.34,0.17,0.71,0.26,1.11,0.26c0.28,0,0.57-0.05,0.86-0.15
				c0.3-0.1,0.57-0.25,0.83-0.46c0.26-0.21,0.46-0.48,0.61-0.81l0.85,0.47c-0.17,0.4-0.42,0.74-0.77,1.02
				c-0.35,0.28-0.74,0.49-1.17,0.64c-0.43,0.14-0.85,0.22-1.27,0.22c-0.55,0-1.06-0.12-1.52-0.36c-0.46-0.24-0.86-0.56-1.2-0.96
				c-0.34-0.4-0.6-0.85-0.79-1.34C167.81,258.95,167.72,258.45,167.72,257.94z"/>
			<path class="st3" d="M180.32,262.1c-0.57,0-1.08-0.11-1.55-0.34c-0.46-0.23-0.86-0.54-1.2-0.93c-0.34-0.39-0.6-0.83-0.78-1.32
				c-0.18-0.49-0.27-0.99-0.27-1.51c0-0.54,0.1-1.05,0.29-1.54c0.19-0.49,0.46-0.93,0.81-1.31c0.35-0.38,0.75-0.69,1.21-0.91
				c0.46-0.22,0.97-0.34,1.51-0.34c0.57,0,1.08,0.12,1.55,0.35c0.46,0.24,0.86,0.55,1.19,0.94c0.33,0.39,0.59,0.83,0.77,1.32
				c0.18,0.49,0.27,0.98,0.27,1.49c0,0.54-0.1,1.05-0.28,1.54c-0.19,0.49-0.46,0.93-0.8,1.31c-0.34,0.38-0.75,0.68-1.21,0.9
				C181.37,261.99,180.86,262.1,180.32,262.1z M177.56,258.01c0,0.41,0.07,0.81,0.2,1.19c0.13,0.38,0.32,0.72,0.56,1.02
				c0.24,0.3,0.53,0.53,0.88,0.71c0.34,0.17,0.72,0.26,1.14,0.26c0.43,0,0.82-0.09,1.16-0.27c0.34-0.18,0.63-0.42,0.87-0.73
				s0.42-0.64,0.55-1.02c0.13-0.38,0.19-0.76,0.19-1.15c0-0.41-0.07-0.8-0.2-1.18c-0.13-0.38-0.32-0.72-0.57-1.02
				c-0.25-0.3-0.54-0.53-0.88-0.7c-0.34-0.17-0.71-0.26-1.12-0.26c-0.43,0-0.82,0.09-1.16,0.27c-0.34,0.18-0.63,0.42-0.87,0.72
				c-0.24,0.3-0.42,0.64-0.55,1.02C177.62,257.23,177.56,257.61,177.56,258.01z"/>
			<path class="st3" d="M193.67,262.04v-6.16l-2.66,4.74h-0.63l-2.67-4.74v6.16h-1.02v-8.07h1.08l2.92,5.24l2.93-5.24h1.07v8.07
				H193.67z"/>
			<path class="st3" d="M197.76,262.04v-8.07h3.37c0.36,0,0.68,0.07,0.98,0.22c0.3,0.15,0.55,0.34,0.77,0.59
				c0.22,0.25,0.39,0.52,0.51,0.83c0.12,0.31,0.18,0.62,0.18,0.94c0,0.44-0.1,0.86-0.3,1.26c-0.2,0.4-0.47,0.72-0.83,0.97
				c-0.36,0.25-0.77,0.37-1.25,0.37h-2.41v2.9H197.76z M198.79,258.23h2.35c0.28,0,0.52-0.08,0.73-0.23
				c0.21-0.15,0.37-0.36,0.49-0.61c0.12-0.26,0.18-0.54,0.18-0.84c0-0.32-0.07-0.6-0.2-0.86c-0.14-0.25-0.31-0.45-0.53-0.6
				c-0.22-0.14-0.46-0.22-0.73-0.22h-2.29V258.23z"/>
			<path class="st3" d="M205.99,262.04v-8.07h1.02v7.16h4.5v0.91H205.99z"/>
			<path class="st3" d="M219.25,261.13v0.91h-5.48v-8.07h5.38v0.91h-4.36v2.62h3.79v0.85h-3.79v2.79H219.25z"/>
			<path class="st3" d="M227.61,254.88h-2.79v7.16h-1.02v-7.16h-2.79v-0.91h6.6V254.88z"/>
			<path class="st3" d="M229.9,262.04v-8.07h1.02v8.07H229.9z"/>
			<path class="st3" d="M237.27,262.1c-0.57,0-1.08-0.11-1.55-0.34c-0.46-0.23-0.86-0.54-1.2-0.93c-0.34-0.39-0.6-0.83-0.78-1.32
				c-0.18-0.49-0.27-0.99-0.27-1.51c0-0.54,0.1-1.05,0.29-1.54c0.19-0.49,0.46-0.93,0.81-1.31c0.34-0.38,0.75-0.69,1.21-0.91
				c0.46-0.22,0.97-0.34,1.51-0.34c0.57,0,1.08,0.12,1.55,0.35c0.46,0.24,0.86,0.55,1.19,0.94c0.33,0.39,0.59,0.83,0.77,1.32
				s0.27,0.98,0.27,1.49c0,0.54-0.1,1.05-0.28,1.54c-0.19,0.49-0.46,0.93-0.8,1.31c-0.34,0.38-0.75,0.68-1.21,0.9
				C238.32,261.99,237.82,262.1,237.27,262.1z M234.51,258.01c0,0.41,0.07,0.81,0.2,1.19c0.13,0.38,0.32,0.72,0.56,1.02
				c0.24,0.3,0.53,0.53,0.88,0.71c0.34,0.17,0.72,0.26,1.14,0.26c0.43,0,0.82-0.09,1.16-0.27c0.34-0.18,0.63-0.42,0.87-0.73
				c0.24-0.3,0.42-0.64,0.55-1.02c0.12-0.38,0.19-0.76,0.19-1.15c0-0.41-0.07-0.8-0.2-1.18c-0.13-0.38-0.32-0.72-0.57-1.02
				c-0.25-0.3-0.54-0.53-0.88-0.7c-0.34-0.17-0.71-0.26-1.12-0.26c-0.43,0-0.82,0.09-1.16,0.27c-0.34,0.18-0.63,0.42-0.87,0.72
				c-0.24,0.3-0.42,0.64-0.55,1.02C234.57,257.23,234.51,257.61,234.51,258.01z"/>
			<path class="st3" d="M244.67,255.86v6.19h-1.02v-8.07h0.86l4.94,6.31v-6.3h1.02v8.06h-0.93L244.67,255.86z"/>
		</g>
	</g>
</g>
</svg>
